<svg xmlns="http://www.w3.org/2000/svg" viewBox="0 0 32 32">
    <path id="evernote" d="M6.96574,8.85015H9.21965a.2338.2338,0,0,0,.23319-.233c0-.00089-.02746-1.93178-.02746-2.46815V6.14244A2.54044,2.54044,0,0,1,9.6793,4.9951L9.756,4.85051a.04845.04845,0,0,0-.02569.014L5.3538,9.20471a.0485.0485,0,0,0-.0163.02552c.09054-.04483.2144-.10614.23177-.11376a3.36378,3.36378,0,0,1,1.39647-.26632m17.52667-.47258a1.99747,1.99747,0,0,0-1.26358-1.61548,16.71975,16.71975,0,0,0-3.09647-.57536,24.05824,24.05824,0,0,0-3.28519-.09852,1.95085,1.95085,0,0,0-1.08461-1.48188,8.42753,8.42753,0,0,0-4.08717-.26951,2.18808,2.18808,0,0,0-1.1927.75981,1.76761,1.76761,0,0,0-.29892,1.05147c0,.26137.00726.87765.014,1.42536.00638.54877.014,1.04031.014,1.04368a.88869.88869,0,0,1-.88775.88739H7.07117a2.712,2.712,0,0,0-1.1282.208,1.56912,1.56912,0,0,0-.63081.50288,2.2731,2.2731,0,0,0-.35191,1.41135,12.16411,12.16411,0,0,0,.10437,1.22,35.07083,35.07083,0,0,0,1.39983,6.29378,1.6182,1.6182,0,0,0,.90246.95578,24.2849,24.2849,0,0,0,4.73942,1.13281c1.16275.14884,1.89279.46123,2.32763-.45061.00142-.00266.08736-.22646.205-.55692a9.03665,9.03665,0,0,0,.43041-2.89394.05481.05481,0,1,1,.1095,0c0,.51864-.09905,2.35456,1.2875,2.84681a16.58145,16.58145,0,0,0,2.83724.50252c1.04314.12014,1.80029.53034,1.80029,3.2074,0,1.62859-.342,1.85168-2.13005,1.85168-1.44963,0-2.0023.03721-2.0023-1.11367,0-.93116.92088-.83334,1.6029-.83334.30478,0,.08346-.22663.08346-.80092,0-.57163.35758-.90192.01949-.91008-2.35917-.0652-3.74731-.00265-3.74731,2.948,0,2.6783,1.02472,3.17568,4.37352,3.17568,2.62531,0,3.55009-.08594,4.63435-3.44927a31.09494,31.09494,0,0,0,1.04739-6.0923,66.90685,66.90685,0,0,0-.493-10.2826M19.91583,15.554a4.78826,4.78826,0,0,0-.92726.056c.082-.66093.35492-1.47266,1.32187-1.43882,1.07025.037,1.22,1.04864,1.2237,1.73349a4.40053,4.40053,0,0,0-1.61831-.35066" fill="#262626"/>
</svg>
